<svg width="144" height="24" viewBox="0 0 144 24" fill="none" xmlns="http://www.w3.org/2000/svg">
<g id="Logo">
<g id="Vector">
<path id="Vector_2" d="M33.0763 12.6899C33.0763 18.3395 28.3791 22.9599 22.5344 22.9599C16.6896 22.9599 11.9924 18.3395 11.9924 12.6899C11.9924 7.0403 16.6896 2.41992 22.5344 2.41992C28.3791 2.41992 33.0763 7.0403 33.0763 12.6899Z" fill="white" stroke="#02021D" stroke-width="2"/>
<path id="Vector_3" d="M27.5801 12.6899C27.5801 18.3395 22.8829 22.9599 17.0381 22.9599C11.1933 22.9599 6.49615 18.3395 6.49615 12.6899C6.49615 7.0403 11.1933 2.41992 17.0381 2.41992C22.8829 2.41992 27.5801 7.0403 27.5801 12.6899Z" fill="white" stroke="#02021D" stroke-width="2"/>
<path id="Vector_4" d="M23.084 12.6899C23.084 18.9142 17.9164 23.9599 11.542 23.9599C5.16752 23.9599 0 18.9142 0 12.6899C0 6.46567 5.16752 1.41992 11.542 1.41992C17.9164 1.41992 23.084 6.46567 23.084 12.6899Z" fill="#02021D"/>
</g>
<g id="Vector_5">
<path d="M56.6901 23.04C55.233 23.04 53.979 22.8721 52.9281 22.5362C51.8771 22.2003 50.9097 21.7656 50.0259 21.232L48.342 22.6547H47.2672V16.4305H48.3778C48.6645 17.3987 49.1302 18.3076 49.7751 19.1573C50.4439 20.007 51.3397 20.6985 52.4623 21.232C53.5849 21.7458 54.9583 22.0027 56.5826 22.0027C57.9202 22.0027 59.0309 21.8248 59.9146 21.4692C60.8223 21.1135 61.503 20.6294 61.9568 20.0168C62.4346 19.3845 62.6734 18.693 62.6734 17.9421C62.6734 17.1715 62.4584 16.5491 62.0285 16.0748C61.5986 15.6006 61.0372 15.2351 60.3446 14.9782C59.6758 14.7016 58.9473 14.4842 58.159 14.3261C57.3947 14.168 56.6662 14.0198 55.9735 13.8815C54.3015 13.5259 52.8325 13.0615 51.5666 12.4885C50.3006 11.8957 49.3094 11.135 48.5928 10.2063C47.9001 9.27758 47.5538 8.12165 47.5538 6.73849C47.5538 5.21701 47.9479 3.96229 48.7361 2.97432C49.5243 1.98634 50.5634 1.25524 51.8532 0.781018C53.143 0.287032 54.5165 0.0400391 55.9735 0.0400391C57.0483 0.0400391 58.0038 0.168475 58.8398 0.425347C59.6996 0.68222 60.6073 1.05765 61.5627 1.55164L62.96 0.306792H64.0707V6.35318H62.9959C62.3032 4.47604 61.3716 3.13239 60.2013 2.32225C59.0309 1.49236 57.5977 1.07741 55.9018 1.07741C54.8747 1.07741 53.9313 1.21573 53.0714 1.49236C52.2354 1.74923 51.5666 2.12466 51.065 2.61865C50.5634 3.11263 50.3126 3.69554 50.3126 4.36736C50.3126 4.99966 50.5275 5.52329 50.9575 5.93823C51.3874 6.33342 51.9487 6.64957 52.6414 6.88669C53.3341 7.1238 54.0746 7.32139 54.8628 7.47947C55.651 7.63755 56.4034 7.78574 57.12 7.92406C58.9353 8.27973 60.464 8.77372 61.706 9.40602C62.9481 10.0186 63.8916 10.8287 64.5365 11.8364C65.1814 12.8442 65.5039 14.1088 65.5039 15.6302C65.5039 17.9619 64.7395 19.7797 63.2108 21.0839C61.706 22.388 59.5325 23.04 56.6901 23.04Z" fill="#02021D"/>
<path d="M81.1371 23.04C79.2741 23.04 77.5304 22.7239 75.9062 22.0916C74.3058 21.4593 72.8966 20.5997 71.6784 19.513C70.4841 18.4262 69.5406 17.1912 68.848 15.8081C68.1792 14.4249 67.8448 12.9726 67.8448 11.4511C67.8448 9.92964 68.1792 8.4872 68.848 7.1238C69.5406 5.74064 70.4841 4.52543 71.6784 3.47818C72.8966 2.41117 74.3058 1.5714 75.9062 0.958852C77.5304 0.34631 79.2741 0.0400391 81.1371 0.0400391C83.0002 0.0400391 84.7439 0.34631 86.3681 0.958852C87.9923 1.5714 89.4016 2.41117 90.5959 3.47818C91.814 4.52543 92.7575 5.74064 93.4263 7.1238C94.119 8.4872 94.4654 9.92964 94.4654 11.4511C94.4654 12.9726 94.119 14.4249 93.4263 15.8081C92.7575 17.1912 91.814 18.4262 90.5959 19.513C89.4016 20.5997 87.9923 21.4593 86.3681 22.0916C84.7439 22.7239 83.0002 23.04 81.1371 23.04ZM81.1013 22.0027C82.3195 22.0027 83.3466 21.8545 84.1826 21.5581C85.0186 21.2419 85.6874 20.6985 86.189 19.9279C86.7145 19.1573 87.0847 18.0903 87.2997 16.7269C87.5385 15.3635 87.6579 13.6247 87.6579 11.5104C87.6579 9.39614 87.5385 7.66719 87.2997 6.32354C87.0847 4.96014 86.7145 3.90301 86.189 3.15215C85.6874 2.38153 85.0186 1.84803 84.1826 1.55164C83.3466 1.23549 82.3195 1.07741 81.1013 1.07741C79.907 1.07741 78.8919 1.23549 78.0559 1.55164C77.2438 1.84803 76.5869 2.37165 76.0853 3.12251C75.5837 3.87337 75.2135 4.9305 74.9746 6.2939C74.7597 7.63755 74.6522 9.35662 74.6522 11.4511C74.6522 13.6049 74.7597 15.3734 74.9746 16.7565C75.2135 18.1199 75.5837 19.1869 76.0853 19.9576C76.6108 20.7084 77.2796 21.2419 78.0917 21.5581C78.9277 21.8545 79.9309 22.0027 81.1013 22.0027Z" fill="#02021D"/>
<path d="M105.473 12.5181V11.629H108.447C109.761 11.629 110.824 11.4906 111.636 11.214C112.448 10.9176 113.045 10.3841 113.427 9.61349C113.809 8.82311 114.001 7.68695 114.001 6.20499C114.001 4.80207 113.845 3.74493 113.535 3.03359C113.224 2.32225 112.759 1.83815 112.137 1.58128C111.54 1.3244 110.788 1.19597 109.88 1.19597H96.6237V0.306792H111.672C113.391 0.306792 114.932 0.563664 116.294 1.07741C117.679 1.59116 118.778 2.3025 119.59 3.21143C120.402 4.10061 120.808 5.1281 120.808 6.2939C120.808 7.51899 120.306 8.60576 119.303 9.55421C118.324 10.4829 116.915 11.214 115.075 11.7475C113.236 12.2613 111.027 12.5181 108.447 12.5181H105.473ZM96.6237 22.6547V21.7656H109.916V22.6547H96.6237ZM100.027 22.2101V0.306792H105.688V22.2101H100.027Z" fill="#02021D"/>
<path d="M135.509 22.2101L128.952 7.36091H128.809L128.594 6.26427L131.03 0.0400391H131.962L141.707 22.2101H135.509ZM117.308 22.6547V21.7656H126.05V22.6547H117.308ZM123.721 16.6083V15.7488H136.046V16.6083H123.721ZM131.567 22.6547V21.7656H144V22.6547H131.567ZM120.461 22.2101L131.03 0.0400391H131.962L130.099 4.75267L121.643 22.2101H120.461Z" fill="#02021D"/>
</g>
</g>
</svg>
